<?xml version="1.0" encoding="UTF-8" standalone="no"?>
<!DOCTYPE svg PUBLIC "-//W3C//DTD SVG 1.1//EN"
 "http://www.w3.org/Graphics/SVG/1.1/DTD/svg11.dtd">
<!-- Generated by graphviz version 2.43.0 (0)
 -->
<!-- Title: intent_lifecycle Pages: 1 -->
<svg width="1119pt" height="648pt"
 viewBox="0.00 0.00 1118.93 648.00" xmlns="http://www.w3.org/2000/svg" xmlns:xlink="http://www.w3.org/1999/xlink">
<g id="graph0" class="graph" transform="scale(0.74 0.74) rotate(0) translate(28.8 848.92)">
<title>intent_lifecycle</title>
<polygon fill="white" stroke="transparent" points="-28.8,28.8 -28.8,-848.92 1486.8,-848.92 1486.8,28.8 -28.8,28.8"/>
<g id="clust1" class="cluster">
<title>cluster_a</title>
<polygon fill="none" stroke="gray" stroke-dasharray="5,2" points="337.5,-222.12 337.5,-800.6 487.5,-800.6 487.5,-222.12 337.5,-222.12"/>
<text text-anchor="middle" x="412.5" y="-785.4" font-family="Times,serif" font-size="14.00">Service A (Sender)</text>
</g>
<g id="clust2" class="cluster">
<title>cluster_x</title>
<polygon fill="none" stroke="steelblue" stroke-dasharray="5,2" points="527,-222.12 527,-605.33 1450,-605.33 1450,-222.12 527,-222.12"/>
<text text-anchor="middle" x="988.5" y="-590.13" font-family="Times,serif" font-size="14.00">AXME Cloud (Lifecycle Engine)</text>
</g>
<g id="clust3" class="cluster">
<title>cluster_b</title>
<polygon fill="none" stroke="gray" stroke-dasharray="5,2" points="8,-19.53 8,-202.59 506,-202.59 506,-19.53 8,-19.53"/>
<text text-anchor="middle" x="257" y="-187.39" font-family="Times,serif" font-size="14.00">Service B (Recipient)</text>
</g>
<!-- A1 -->
<g id="node1" class="node">
<title>A1</title>
<polygon fill="none" stroke="black" points="464,-435.29 360,-435.29 360,-399.29 464,-399.29 464,-435.29"/>
<text text-anchor="middle" x="412" y="-420.49" font-family="monospace" font-size="11.00">Service A</text>
<text text-anchor="middle" x="412" y="-408.49" font-family="monospace" font-size="11.00">submit intent</text>
</g>
<!-- X1 -->
<g id="node5" class="node">
<title>X1</title>
<polygon fill="none" stroke="black" points="761,-435.29 535,-435.29 535,-399.29 761,-399.29 761,-435.29"/>
<text text-anchor="middle" x="648" y="-420.49" font-family="monospace" font-size="11.00">AXME Cloud</text>
<text text-anchor="middle" x="648" y="-408.49" font-family="monospace" font-size="11.00">CREATED → SUBMITTED → DELIVERED</text>
</g>
<!-- A1&#45;&gt;X1 -->
<g id="edge1" class="edge">
<title>A1&#45;&gt;X1</title>
<path fill="none" stroke="black" d="M464.06,-417.29C482.06,-417.29 503.14,-417.29 524.47,-417.29"/>
<polygon fill="black" stroke="black" points="524.61,-420.79 534.61,-417.29 524.61,-413.79 524.61,-420.79"/>
</g>
<!-- A2 -->
<g id="node2" class="node">
<title>A2</title>
<polygon fill="none" stroke="black" points="477.5,-567.29 346.5,-567.29 346.5,-531.29 477.5,-531.29 477.5,-567.29"/>
<text text-anchor="middle" x="412" y="-552.49" font-family="monospace" font-size="11.00">Service A</text>
<text text-anchor="middle" x="412" y="-540.49" font-family="monospace" font-size="11.00">receive intent_id</text>
</g>
<!-- A3 -->
<g id="node3" class="node">
<title>A3</title>
<polygon fill="none" stroke="black" points="457.5,-303.29 366.5,-303.29 366.5,-267.29 457.5,-267.29 457.5,-303.29"/>
<text text-anchor="middle" x="412" y="-288.49" font-family="monospace" font-size="11.00">Service A</text>
<text text-anchor="middle" x="412" y="-276.49" font-family="monospace" font-size="11.00">read events</text>
</g>
<!-- X2 -->
<g id="node6" class="node">
<title>X2</title>
<polygon fill="none" stroke="black" points="744,-303.29 552,-303.29 552,-267.29 744,-267.29 744,-303.29"/>
<text text-anchor="middle" x="648" y="-288.49" font-family="monospace" font-size="11.00">AXME Cloud</text>
<text text-anchor="middle" x="648" y="-276.49" font-family="monospace" font-size="11.00">ACKNOWLEDGED → IN_PROGRESS</text>
</g>
<!-- A3&#45;&gt;X2 -->
<g id="edge6" class="edge">
<title>A3&#45;&gt;X2</title>
<path fill="none" stroke="black" d="M457.56,-285.29C481.41,-285.29 511.87,-285.29 541.35,-285.29"/>
<polygon fill="black" stroke="black" points="541.73,-288.79 551.73,-285.29 541.73,-281.79 541.73,-288.79"/>
</g>
<!-- A4 -->
<g id="node4" class="node">
<title>A4</title>
<polygon fill="none" stroke="black" points="474.5,-699.29 349.5,-699.29 349.5,-663.29 474.5,-663.29 474.5,-699.29"/>
<text text-anchor="middle" x="412" y="-684.49" font-family="monospace" font-size="11.00">Service A</text>
<text text-anchor="middle" x="412" y="-672.49" font-family="monospace" font-size="11.00">terminal outcome</text>
</g>
<!-- X1&#45;&gt;A2 -->
<g id="edge2" class="edge">
<title>X1&#45;&gt;A2</title>
<path fill="none" stroke="black" d="M614.97,-435.36C573.08,-458.99 499.66,-500.4 453.83,-526.26"/>
<polygon fill="black" stroke="black" points="452.04,-523.25 445.05,-531.21 455.48,-529.35 452.04,-523.25"/>
</g>
<!-- B1 -->
<g id="node11" class="node">
<title>B1</title>
<polygon fill="none" stroke="black" points="134,-101.29 16,-101.29 16,-65.29 134,-65.29 134,-101.29"/>
<text text-anchor="middle" x="75" y="-86.49" font-family="monospace" font-size="11.00">Service B</text>
<text text-anchor="middle" x="75" y="-74.49" font-family="monospace" font-size="11.00">intent received</text>
</g>
<!-- X1&#45;&gt;B1 -->
<g id="edge3" class="edge">
<title>X1&#45;&gt;B1</title>
<path fill="none" stroke="black" d="M615,-399.22C586.49,-381.21 546.38,-350.73 527,-312.29 501.31,-261.32 547.98,-94.97 506,-56.29 400.09,41.29 210.27,-23.18 122.65,-61.14"/>
<polygon fill="black" stroke="black" points="120.98,-58.05 113.24,-65.29 123.8,-64.46 120.98,-58.05"/>
</g>
<!-- X3 -->
<g id="node7" class="node">
<title>X3</title>
<polygon fill="none" stroke="black" points="882,-400.29 798,-368.29 882,-336.29 966,-368.29 882,-400.29"/>
<text text-anchor="middle" x="882" y="-371.49" font-family="monospace" font-size="11.00">AXME Cloud</text>
<text text-anchor="middle" x="882" y="-359.49" font-family="monospace" font-size="11.00">blocked?</text>
</g>
<!-- X2&#45;&gt;X3 -->
<g id="edge8" class="edge">
<title>X2&#45;&gt;X3</title>
<path fill="none" stroke="black" d="M699.34,-303.3C737.55,-316.97 789.93,-335.71 828.63,-349.55"/>
<polygon fill="black" stroke="black" points="827.56,-352.89 838.15,-352.96 829.92,-346.3 827.56,-352.89"/>
</g>
<!-- X4 -->
<g id="node8" class="node">
<title>X4</title>
<polygon fill="none" stroke="black" points="1213,-366.29 1041,-366.29 1041,-322.29 1213,-322.29 1213,-366.29"/>
<text text-anchor="middle" x="1127" y="-353.49" font-family="monospace" font-size="11.00">AXME Cloud</text>
<text text-anchor="middle" x="1127" y="-341.49" font-family="monospace" font-size="11.00">WAITING</text>
<text text-anchor="middle" x="1127" y="-329.49" font-family="monospace" font-size="11.00">(human/tool/agent/time)</text>
</g>
<!-- X3&#45;&gt;X4 -->
<g id="edge9" class="edge">
<title>X3&#45;&gt;X4</title>
<path fill="none" stroke="black" d="M949.08,-361.76C974.24,-359.28 1003.43,-356.4 1030.76,-353.7"/>
<polygon fill="black" stroke="black" points="1031.13,-357.18 1040.74,-352.71 1030.44,-350.21 1031.13,-357.18"/>
<text text-anchor="middle" x="993" y="-360.29" font-family="monospace" font-size="10.00">yes</text>
</g>
<!-- X6 -->
<g id="node10" class="node">
<title>X6</title>
<polygon fill="none" stroke="black" points="1233,-503.29 1021,-503.29 1021,-467.29 1233,-467.29 1233,-503.29"/>
<text text-anchor="middle" x="1127" y="-488.49" font-family="monospace" font-size="11.00">AXME Cloud</text>
<text text-anchor="middle" x="1127" y="-476.49" font-family="monospace" font-size="11.00">COMPLETED / FAILED / CANCELED</text>
</g>
<!-- X3&#45;&gt;X6 -->
<g id="edge12" class="edge">
<title>X3&#45;&gt;X6</title>
<path fill="none" stroke="black" d="M919.91,-386.06C962.51,-406.57 1032.67,-440.35 1079.1,-462.71"/>
<polygon fill="black" stroke="black" points="1077.82,-465.98 1088.35,-467.16 1080.85,-459.67 1077.82,-465.98"/>
<text text-anchor="middle" x="993" y="-425.29" font-family="monospace" font-size="10.00">no</text>
</g>
<!-- X5 -->
<g id="node9" class="node">
<title>X5</title>
<polygon fill="none" stroke="black" points="1442,-333.29 1270,-333.29 1270,-297.29 1442,-297.29 1442,-333.29"/>
<text text-anchor="middle" x="1356" y="-318.49" font-family="monospace" font-size="11.00">AXME Cloud</text>
<text text-anchor="middle" x="1356" y="-306.49" font-family="monospace" font-size="11.00">resume / scheduler tick</text>
</g>
<!-- X4&#45;&gt;X5 -->
<g id="edge10" class="edge">
<title>X4&#45;&gt;X5</title>
<path fill="none" stroke="black" d="M1213.17,-333.41C1228.34,-331.47 1244.23,-329.44 1259.67,-327.47"/>
<polygon fill="black" stroke="black" points="1260.25,-330.92 1269.73,-326.18 1259.37,-323.98 1260.25,-330.92"/>
</g>
<!-- X5&#45;&gt;X2 -->
<g id="edge11" class="edge">
<title>X5&#45;&gt;X2</title>
<path fill="none" stroke="black" d="M1269.83,-311.67C1140.55,-306.18 894.99,-295.74 754.56,-289.78"/>
<polygon fill="black" stroke="black" points="754.35,-286.26 744.21,-289.34 754.06,-293.26 754.35,-286.26"/>
</g>
<!-- X6&#45;&gt;A4 -->
<g id="edge13" class="edge">
<title>X6&#45;&gt;A4</title>
<path fill="none" stroke="black" d="M1060.45,-503.31C926.64,-540.09 623.02,-623.56 484.41,-661.66"/>
<polygon fill="black" stroke="black" points="483.43,-658.3 474.72,-664.32 485.29,-665.05 483.43,-658.3"/>
</g>
<!-- B2 -->
<g id="node12" class="node">
<title>B2</title>
<polygon fill="none" stroke="black" points="289,-101.29 171,-101.29 171,-65.29 289,-65.29 289,-101.29"/>
<text text-anchor="middle" x="230" y="-86.49" font-family="monospace" font-size="11.00">Service B</text>
<text text-anchor="middle" x="230" y="-74.49" font-family="monospace" font-size="11.00">async execution</text>
</g>
<!-- B1&#45;&gt;B2 -->
<g id="edge4" class="edge">
<title>B1&#45;&gt;B2</title>
<path fill="none" stroke="black" d="M134.28,-83.29C142.9,-83.29 151.84,-83.29 160.65,-83.29"/>
<polygon fill="black" stroke="black" points="160.88,-86.79 170.88,-83.29 160.88,-79.79 160.88,-86.79"/>
</g>
<!-- B3 -->
<g id="node13" class="node">
<title>B3</title>
<polygon fill="none" stroke="black" points="498,-101.29 326,-101.29 326,-65.29 498,-65.29 498,-101.29"/>
<text text-anchor="middle" x="412" y="-86.49" font-family="monospace" font-size="11.00">Service B</text>
<text text-anchor="middle" x="412" y="-74.49" font-family="monospace" font-size="11.00">status/completion event</text>
</g>
<!-- B2&#45;&gt;B3 -->
<g id="edge5" class="edge">
<title>B2&#45;&gt;B3</title>
<path fill="none" stroke="black" d="M289.44,-83.29C297.87,-83.29 306.72,-83.29 315.64,-83.29"/>
<polygon fill="black" stroke="black" points="315.72,-86.79 325.72,-83.29 315.72,-79.79 315.72,-86.79"/>
</g>
<!-- B3&#45;&gt;X2 -->
<g id="edge7" class="edge">
<title>B3&#45;&gt;X2</title>
<path fill="none" stroke="black" d="M434.18,-101.57C476.29,-137.93 570.59,-219.33 618.25,-260.47"/>
<polygon fill="black" stroke="black" points="616.18,-263.31 626.04,-267.19 620.76,-258.01 616.18,-263.31"/>
</g>
</g>
</svg>
