<?xml version="1.0" encoding="UTF-8" standalone="no"?>
<!DOCTYPE svg PUBLIC "-//W3C//DTD SVG 1.1//EN"
 "http://www.w3.org/Graphics/SVG/1.1/DTD/svg11.dtd">
<!-- Generated by graphviz version 2.43.0 (0)
 -->
<!-- Title: observability Pages: 1 -->
<svg width="1111pt" height="648pt"
 viewBox="0.00 0.00 1111.15 648.00" xmlns="http://www.w3.org/2000/svg" xmlns:xlink="http://www.w3.org/1999/xlink">
<g id="graph0" class="graph" transform="scale(0.92 0.92) rotate(0) translate(28.8 676.8)">
<title>observability</title>
<polygon fill="white" stroke="transparent" points="-28.8,28.8 -28.8,-676.8 1181.11,-676.8 1181.11,28.8 -28.8,28.8"/>
<!-- SVC -->
<g id="node1" class="node">
<title>SVC</title>
<polygon fill="#1e40af" stroke="black" points="61.81,-290.47 4.81,-290.47 4.81,-254.47 61.81,-254.47 61.81,-290.47"/>
<text text-anchor="middle" x="33.31" y="-269.67" font-family="Helvetica,sans-Serif" font-size="11.00" fill="white">Service</text>
</g>
<!-- MET -->
<g id="node2" class="node">
<title>MET</title>
<polygon fill="#dbeafe" stroke="black" points="219.31,-495.47 127.31,-495.47 127.31,-459.47 219.31,-459.47 219.31,-495.47"/>
<text text-anchor="middle" x="173.31" y="-480.67" font-family="Helvetica,sans-Serif" font-size="11.00">metrics</text>
<text text-anchor="middle" x="173.31" y="-468.67" font-family="Helvetica,sans-Serif" font-size="11.00">(Prometheus)</text>
</g>
<!-- SVC&#45;&gt;MET -->
<g id="edge1" class="edge">
<title>SVC&#45;&gt;MET</title>
<path fill="none" stroke="black" d="M46.56,-290.67C71.01,-326.98 125.96,-408.61 154.44,-450.92"/>
<polygon fill="black" stroke="black" points="151.61,-452.98 160.1,-459.32 157.41,-449.07 151.61,-452.98"/>
</g>
<!-- LOG -->
<g id="node3" class="node">
<title>LOG</title>
<polygon fill="#dbeafe" stroke="black" points="229.81,-290.47 116.81,-290.47 116.81,-254.47 229.81,-254.47 229.81,-290.47"/>
<text text-anchor="middle" x="173.31" y="-275.67" font-family="Helvetica,sans-Serif" font-size="11.00">logs</text>
<text text-anchor="middle" x="173.31" y="-263.67" font-family="Helvetica,sans-Serif" font-size="11.00">(structured JSON)</text>
</g>
<!-- SVC&#45;&gt;LOG -->
<g id="edge2" class="edge">
<title>SVC&#45;&gt;LOG</title>
<path fill="none" stroke="black" d="M61.91,-272.47C74.81,-272.47 90.78,-272.47 106.53,-272.47"/>
<polygon fill="black" stroke="black" points="106.81,-275.97 116.81,-272.47 106.81,-268.97 106.81,-275.97"/>
</g>
<!-- TRC -->
<g id="node4" class="node">
<title>TRC</title>
<polygon fill="#dbeafe" stroke="black" points="200.31,-86.47 146.31,-86.47 146.31,-50.47 200.31,-50.47 200.31,-86.47"/>
<text text-anchor="middle" x="173.31" y="-71.67" font-family="Helvetica,sans-Serif" font-size="11.00">traces</text>
<text text-anchor="middle" x="173.31" y="-59.67" font-family="Helvetica,sans-Serif" font-size="11.00">(OTLP)</text>
</g>
<!-- SVC&#45;&gt;TRC -->
<g id="edge3" class="edge">
<title>SVC&#45;&gt;TRC</title>
<path fill="none" stroke="black" d="M46.56,-254.37C71.01,-218.23 125.96,-137 154.44,-94.9"/>
<polygon fill="black" stroke="black" points="157.39,-96.78 160.1,-86.54 151.59,-92.86 157.39,-96.78"/>
</g>
<!-- DASH -->
<g id="node5" class="node">
<title>DASH</title>
<polygon fill="#dbeafe" stroke="black" points="419.31,-495.47 291.31,-495.47 291.31,-459.47 419.31,-459.47 419.31,-495.47"/>
<text text-anchor="middle" x="355.31" y="-474.67" font-family="Helvetica,sans-Serif" font-size="11.00">Grafana dashboards</text>
</g>
<!-- MET&#45;&gt;DASH -->
<g id="edge4" class="edge">
<title>MET&#45;&gt;DASH</title>
<path fill="none" stroke="black" d="M219.74,-477.47C238.35,-477.47 260.37,-477.47 281.15,-477.47"/>
<polygon fill="black" stroke="black" points="281.23,-480.97 291.23,-477.47 281.23,-473.97 281.23,-480.97"/>
</g>
<!-- AGG -->
<g id="node6" class="node">
<title>AGG</title>
<polygon fill="#dbeafe" stroke="black" points="404.31,-290.47 306.31,-290.47 306.31,-254.47 404.31,-254.47 404.31,-290.47"/>
<text text-anchor="middle" x="355.31" y="-269.67" font-family="Helvetica,sans-Serif" font-size="11.00">log aggregator</text>
</g>
<!-- LOG&#45;&gt;AGG -->
<g id="edge5" class="edge">
<title>LOG&#45;&gt;AGG</title>
<path fill="none" stroke="black" d="M230.28,-272.47C251.21,-272.47 275.02,-272.47 296.15,-272.47"/>
<polygon fill="black" stroke="black" points="296.28,-275.97 306.28,-272.47 296.28,-268.97 296.28,-275.97"/>
</g>
<!-- JAE -->
<g id="node7" class="node">
<title>JAE</title>
<polygon fill="#dbeafe" stroke="black" points="404.31,-86.47 306.31,-86.47 306.31,-50.47 404.31,-50.47 404.31,-86.47"/>
<text text-anchor="middle" x="355.31" y="-65.67" font-family="Helvetica,sans-Serif" font-size="11.00">Jaeger / Tempo</text>
</g>
<!-- TRC&#45;&gt;JAE -->
<g id="edge6" class="edge">
<title>TRC&#45;&gt;JAE</title>
<path fill="none" stroke="black" d="M200.49,-68.47C225.39,-68.47 263.71,-68.47 295.88,-68.47"/>
<polygon fill="black" stroke="black" points="296.08,-71.97 306.08,-68.47 296.08,-64.97 296.08,-71.97"/>
</g>
<!-- SLO -->
<g id="node8" class="node">
<title>SLO</title>
<polygon fill="#fef3c7" stroke="black" points="556.31,-495.47 483.04,-477.47 556.31,-459.47 629.59,-477.47 556.31,-495.47"/>
<text text-anchor="middle" x="556.31" y="-474.67" font-family="Helvetica,sans-Serif" font-size="11.00">SLO breach?</text>
</g>
<!-- DASH&#45;&gt;SLO -->
<g id="edge7" class="edge">
<title>DASH&#45;&gt;SLO</title>
<path fill="none" stroke="black" d="M419.55,-477.47C436.39,-477.47 454.84,-477.47 472.55,-477.47"/>
<polygon fill="black" stroke="black" points="472.88,-480.97 482.88,-477.47 472.88,-473.97 472.88,-480.97"/>
</g>
<!-- OK -->
<g id="node9" class="node">
<title>OK</title>
<polygon fill="#dcfce7" stroke="black" points="803.81,-597.47 738.81,-597.47 738.81,-561.47 803.81,-561.47 803.81,-597.47"/>
<text text-anchor="middle" x="771.31" y="-576.67" font-family="Helvetica,sans-Serif" font-size="11.00">all green</text>
</g>
<!-- SLO&#45;&gt;OK -->
<g id="edge8" class="edge">
<title>SLO&#45;&gt;OK</title>
<path fill="none" stroke="black" d="M582.16,-489.37C618.36,-506.71 685.99,-539.09 729.54,-559.95"/>
<polygon fill="black" stroke="black" points="728.19,-563.18 738.72,-564.34 731.21,-556.87 728.19,-563.18"/>
<text text-anchor="middle" x="676.31" y="-540.47" font-family="Helvetica,sans-Serif" font-size="10.00">no</text>
</g>
<!-- PAGE -->
<g id="node10" class="node">
<title>PAGE</title>
<polygon fill="#dbeafe" stroke="black" points="822.81,-393.47 719.81,-393.47 719.81,-357.47 822.81,-357.47 822.81,-393.47"/>
<text text-anchor="middle" x="771.31" y="-372.67" font-family="Helvetica,sans-Serif" font-size="11.00">PagerDuty alert</text>
</g>
<!-- SLO&#45;&gt;PAGE -->
<g id="edge9" class="edge">
<title>SLO&#45;&gt;PAGE</title>
<path fill="none" stroke="black" d="M582.16,-465.57C616.62,-449.07 679.57,-418.93 723.11,-398.08"/>
<polygon fill="black" stroke="black" points="724.85,-401.12 732.36,-393.65 721.83,-394.81 724.85,-401.12"/>
<text text-anchor="middle" x="676.31" y="-429.47" font-family="Helvetica,sans-Serif" font-size="10.00">warn</text>
</g>
<!-- ONC -->
<g id="node11" class="node">
<title>ONC</title>
<polygon fill="#dbeafe" stroke="black" points="985.31,-393.47 881.31,-393.47 881.31,-357.47 985.31,-357.47 985.31,-393.47"/>
<text text-anchor="middle" x="933.31" y="-372.67" font-family="Helvetica,sans-Serif" font-size="11.00">on&#45;call engineer</text>
</g>
<!-- PAGE&#45;&gt;ONC -->
<g id="edge10" class="edge">
<title>PAGE&#45;&gt;ONC</title>
<path fill="none" stroke="black" d="M822.94,-375.47C838.18,-375.47 855.08,-375.47 870.95,-375.47"/>
<polygon fill="black" stroke="black" points="871.19,-378.97 881.19,-375.47 871.19,-371.97 871.19,-378.97"/>
</g>
<!-- RUN -->
<g id="node12" class="node">
<title>RUN</title>
<polygon fill="#dbeafe" stroke="black" points="1144.81,-393.47 1043.81,-393.47 1043.81,-357.47 1144.81,-357.47 1144.81,-393.47"/>
<text text-anchor="middle" x="1094.31" y="-372.67" font-family="Helvetica,sans-Serif" font-size="11.00">runbook lookup</text>
</g>
<!-- ONC&#45;&gt;RUN -->
<g id="edge11" class="edge">
<title>ONC&#45;&gt;RUN</title>
<path fill="none" stroke="black" d="M985.5,-375.47C1000.76,-375.47 1017.63,-375.47 1033.41,-375.47"/>
<polygon fill="black" stroke="black" points="1033.58,-378.97 1043.58,-375.47 1033.58,-371.97 1033.58,-378.97"/>
</g>
</g>
</svg>
