<?xml version="1.0" encoding="UTF-8" standalone="no"?>
<!DOCTYPE svg PUBLIC "-//W3C//DTD SVG 1.1//EN"
 "http://www.w3.org/Graphics/SVG/1.1/DTD/svg11.dtd">
<!-- Generated by graphviz version 2.43.0 (0)
 -->
<!-- Title: transport Pages: 1 -->
<svg width="1117pt" height="648pt"
 viewBox="0.00 0.00 1116.63 648.00" xmlns="http://www.w3.org/2000/svg" xmlns:xlink="http://www.w3.org/1999/xlink">
<g id="graph0" class="graph" transform="scale(0.8 0.8) rotate(0) translate(28.8 779.74)">
<title>transport</title>
<polygon fill="white" stroke="transparent" points="-28.8,28.8 -28.8,-779.74 1364.46,-779.74 1364.46,28.8 -28.8,28.8"/>
<!-- SRC -->
<g id="node1" class="node">
<title>SRC</title>
<polygon fill="#1e40af" stroke="black" points="99.16,-393.87 0.16,-393.87 0.16,-357.87 99.16,-357.87 99.16,-393.87"/>
<text text-anchor="middle" x="49.66" y="-373.07" font-family="Helvetica,sans-Serif" font-size="11.00" fill="white">Sender Service</text>
</g>
<!-- SEL -->
<g id="node2" class="node">
<title>SEL</title>
<polygon fill="#fef3c7" stroke="black" points="238.66,-393.87 135.86,-375.87 238.66,-357.87 341.47,-375.87 238.66,-393.87"/>
<text text-anchor="middle" x="238.66" y="-373.07" font-family="Helvetica,sans-Serif" font-size="11.00">transport selection</text>
</g>
<!-- SRC&#45;&gt;SEL -->
<g id="edge1" class="edge">
<title>SRC&#45;&gt;SEL</title>
<path fill="none" stroke="black" d="M99.31,-375.87C107.48,-375.87 116.26,-375.87 125.28,-375.87"/>
<polygon fill="black" stroke="black" points="125.55,-379.37 135.55,-375.87 125.55,-372.37 125.55,-379.37"/>
</g>
<!-- HTTPS -->
<g id="node3" class="node">
<title>HTTPS</title>
<polygon fill="#dbeafe" stroke="black" points="526.16,-674.87 435.16,-674.87 435.16,-638.87 526.16,-638.87 526.16,-674.87"/>
<text text-anchor="middle" x="480.66" y="-654.07" font-family="Helvetica,sans-Serif" font-size="11.00">HTTPS / REST</text>
</g>
<!-- SEL&#45;&gt;HTTPS -->
<g id="edge2" class="edge">
<title>SEL&#45;&gt;HTTPS</title>
<path fill="none" stroke="black" d="M252.91,-391.38C292.15,-437.32 408.13,-573.12 457.27,-630.64"/>
<polygon fill="black" stroke="black" points="454.86,-633.21 464.01,-638.54 460.18,-628.67 454.86,-633.21"/>
<text text-anchor="middle" x="384.66" y="-575.87" font-family="Helvetica,sans-Serif" font-size="10.00">primary</text>
</g>
<!-- WS -->
<g id="node4" class="node">
<title>WS</title>
<polygon fill="#dbeafe" stroke="black" points="519.16,-393.87 442.16,-393.87 442.16,-357.87 519.16,-357.87 519.16,-393.87"/>
<text text-anchor="middle" x="480.66" y="-373.07" font-family="Helvetica,sans-Serif" font-size="11.00">WebSocket</text>
</g>
<!-- SEL&#45;&gt;WS -->
<g id="edge3" class="edge">
<title>SEL&#45;&gt;WS</title>
<path fill="none" stroke="black" d="M341.79,-375.87C373.08,-375.87 406.02,-375.87 431.86,-375.87"/>
<polygon fill="black" stroke="black" points="432.11,-379.37 442.11,-375.87 432.11,-372.37 432.11,-379.37"/>
<text text-anchor="middle" x="384.66" y="-378.87" font-family="Helvetica,sans-Serif" font-size="10.00">streaming</text>
</g>
<!-- QUEUE -->
<g id="node5" class="node">
<title>QUEUE</title>
<polygon fill="#dbeafe" stroke="black" points="533.16,-111.87 428.16,-111.87 428.16,-75.87 533.16,-75.87 533.16,-111.87"/>
<text text-anchor="middle" x="480.66" y="-91.07" font-family="Helvetica,sans-Serif" font-size="11.00">Message Queue</text>
</g>
<!-- SEL&#45;&gt;QUEUE -->
<g id="edge4" class="edge">
<title>SEL&#45;&gt;QUEUE</title>
<path fill="none" stroke="black" d="M252.91,-360.3C292.25,-314.08 408.69,-177.26 457.62,-119.77"/>
<polygon fill="black" stroke="black" points="460.51,-121.77 464.33,-111.89 455.18,-117.23 460.51,-121.77"/>
<text text-anchor="middle" x="384.66" y="-237.87" font-family="Helvetica,sans-Serif" font-size="10.00">async</text>
</g>
<!-- GW -->
<g id="node6" class="node">
<title>GW</title>
<polygon fill="#e0e7ff" stroke="black" points="655.66,-393.87 569.66,-393.87 569.66,-357.87 655.66,-357.87 655.66,-393.87"/>
<text text-anchor="middle" x="612.66" y="-373.07" font-family="Helvetica,sans-Serif" font-size="11.00">API Gateway</text>
</g>
<!-- HTTPS&#45;&gt;GW -->
<g id="edge5" class="edge">
<title>HTTPS&#45;&gt;GW</title>
<path fill="none" stroke="black" d="M489.99,-638.86C512.14,-591 572.57,-460.37 599,-403.23"/>
<polygon fill="black" stroke="black" points="602.21,-404.63 603.24,-394.09 595.86,-401.69 602.21,-404.63"/>
</g>
<!-- WS&#45;&gt;GW -->
<g id="edge6" class="edge">
<title>WS&#45;&gt;GW</title>
<path fill="none" stroke="black" d="M519.27,-375.87C531.81,-375.87 546.03,-375.87 559.48,-375.87"/>
<polygon fill="black" stroke="black" points="559.58,-379.37 569.58,-375.87 559.58,-372.37 559.58,-379.37"/>
</g>
<!-- QUEUE&#45;&gt;GW -->
<g id="edge7" class="edge">
<title>QUEUE&#45;&gt;GW</title>
<path fill="none" stroke="black" d="M489.99,-111.94C512.14,-159.97 572.57,-291.06 599,-348.4"/>
<polygon fill="black" stroke="black" points="595.87,-349.97 603.24,-357.58 602.23,-347.04 595.87,-349.97"/>
</g>
<!-- OK -->
<g id="node7" class="node">
<title>OK</title>
<polygon fill="#fef3c7" stroke="black" points="755.66,-393.87 692.8,-375.87 755.66,-357.87 818.53,-375.87 755.66,-393.87"/>
<text text-anchor="middle" x="755.66" y="-373.07" font-family="Helvetica,sans-Serif" font-size="11.00">delivered?</text>
</g>
<!-- GW&#45;&gt;OK -->
<g id="edge8" class="edge">
<title>GW&#45;&gt;OK</title>
<path fill="none" stroke="black" d="M655.97,-375.87C664.34,-375.87 673.34,-375.87 682.38,-375.87"/>
<polygon fill="black" stroke="black" points="682.58,-379.37 692.58,-375.87 682.58,-372.37 682.58,-379.37"/>
</g>
<!-- DONE -->
<g id="node8" class="node">
<title>DONE</title>
<polygon fill="#dcfce7" stroke="black" points="1335.66,-393.87 1275.66,-393.87 1275.66,-357.87 1335.66,-357.87 1335.66,-393.87"/>
<text text-anchor="middle" x="1305.66" y="-373.07" font-family="Helvetica,sans-Serif" font-size="11.00">success</text>
</g>
<!-- OK&#45;&gt;DONE -->
<g id="edge9" class="edge">
<title>OK&#45;&gt;DONE</title>
<path fill="none" stroke="black" d="M818.73,-375.87C932.46,-375.87 1171.22,-375.87 1265.33,-375.87"/>
<polygon fill="black" stroke="black" points="1265.55,-379.37 1275.55,-375.87 1265.55,-372.37 1265.55,-379.37"/>
<text text-anchor="middle" x="1097.66" y="-378.87" font-family="Helvetica,sans-Serif" font-size="10.00">yes</text>
</g>
<!-- FB -->
<g id="node9" class="node">
<title>FB</title>
<polygon fill="#dbeafe" stroke="black" points="1070.66,-273.87 954.66,-273.87 954.66,-237.87 1070.66,-237.87 1070.66,-273.87"/>
<text text-anchor="middle" x="1012.66" y="-253.07" font-family="Helvetica,sans-Serif" font-size="11.00">fallback to QUEUE</text>
</g>
<!-- OK&#45;&gt;FB -->
<g id="edge10" class="edge">
<title>OK&#45;&gt;FB</title>
<path fill="none" stroke="black" d="M780.2,-364.79C821.81,-345.21 909.13,-304.12 963.82,-278.38"/>
<polygon fill="black" stroke="black" points="965.41,-281.5 972.97,-274.08 962.43,-275.17 965.41,-281.5"/>
<text text-anchor="middle" x="886.66" y="-339.87" font-family="Helvetica,sans-Serif" font-size="10.00">timeout / disconnect</text>
</g>
<!-- RETRY -->
<g id="node10" class="node">
<title>RETRY</title>
<polygon fill="#dbeafe" stroke="black" points="1238.66,-273.87 1124.66,-273.87 1124.66,-237.87 1238.66,-237.87 1238.66,-273.87"/>
<text text-anchor="middle" x="1181.66" y="-253.07" font-family="Helvetica,sans-Serif" font-size="11.00">retry with backoff</text>
</g>
<!-- FB&#45;&gt;RETRY -->
<g id="edge11" class="edge">
<title>FB&#45;&gt;RETRY</title>
<path fill="none" stroke="black" d="M1070.67,-255.87C1084.66,-255.87 1099.76,-255.87 1114.15,-255.87"/>
<polygon fill="black" stroke="black" points="1114.48,-259.37 1124.48,-255.87 1114.48,-252.37 1114.48,-259.37"/>
</g>
<!-- RETRY&#45;&gt;DONE -->
<g id="edge12" class="edge">
<title>RETRY&#45;&gt;DONE</title>
<path fill="none" stroke="black" d="M1201.19,-274.09C1222,-294.56 1255.91,-327.91 1279.2,-350.82"/>
<polygon fill="black" stroke="black" points="1276.78,-353.35 1286.36,-357.86 1281.69,-348.36 1276.78,-353.35"/>
</g>
</g>
</svg>
